# xmcd
#
# Track frame offsets:
#	150
#	15855
#	32584
#	51129
#	68586
#	89028
#	104050
#	119950
#	134837
#	148261
#	167171
#	179085
#	198521
#	212905
#	234433
#	250434
#	268269
#
# Disc length: 3858 seconds
#
# Revision: 1
# Processed by: cddbd v1.5.1PL2 Copyright (c) Steve Scherf et al.
# Submitted via: audiograbber 1.83.01
#
DISCID=150f1011
DTITLE=Don Covay - King Of Soul
DYEAR=2005
DGENRE=Blues
TTITLE0=Sweet Thing
TTITLE1=Why Do Your Put Your Shoes Under My Bed
TTITLE2=Three Time Loser
TTITLE3=I Didn't THink I Could Make It
TTITLE4=Daddy Please Don't Go Tonight
TTITLE5=Stop By
TTITLE6=Love Is Sweeter on the Other Side
TTITLE7=Ugly Woman
TTITLE8=Your Love Has Got To Me
TTITLE9=Standing In The Grits Line
TTITLE10=You Can't Get Me For Nothing
TTITLE11=Bad Luck
TTITLE12=Ain't Nothing A Young Girl Can Do
TTITLE13=What's In The Headlines
TTITLE14=If There's A Will There's A Way
TTITLE15=Yo Yo, Pt 1
TTITLE16=Yo Yo Pt 2
EXTD=
EXTT0=
EXTT1=
EXTT2=
EXTT3=
EXTT4=
EXTT5=
EXTT6=
EXTT7=
EXTT8=
EXTT9=
EXTT10=
EXTT11=
EXTT12=
EXTT13=
EXTT14=
EXTT15=
EXTT16=
PLAYORDER=
